<?xml version="1.0" encoding="utf-8"?>
<!-- Generator: Adobe Illustrator 24.1.1, SVG Export Plug-In . SVG Version: 6.00 Build 0)  -->
<svg version="1.1" id="Layer_1" xmlns="http://www.w3.org/2000/svg" xmlns:xlink="http://www.w3.org/1999/xlink" x="0px" y="0px"
	 viewBox="0 0 512 512" style="enable-background:new 0 0 512 512;" xml:space="preserve">
<g>
	<path d="M259.8,0C190.6-1.1,123.9,26,75,75C-25,175-25,337.1,75,437.1c100,99.9,262.1,99.9,362,0C537,337.1,537,175,437,75
		C390,27.9,326.4,1,259.8,0z M165.7,127.9c12,2.7,22.4,4.6,35.5,4.6c19.6,0,39.7-4.6,59.4-4.6c38.2,0,73.6,17.3,73.6,59.8
		c0,32.8-19.7,53.7-50.1,62.5l59.4,87.6h27.8v21.6H329L258.7,254h-37.5v83.8h36.7v21.6h-92.2v-21.6h31.7V152.1l-31.7-3.9V127.9
		L165.7,127.9z M261,149.5c-12.7,0-25.8,1.1-39.7,2.7v81.1l20.1,0.4c49,0.7,67.9-18.2,67.9-43.3C309.2,161.1,288,149.5,261,149.5z"
		/>
</g>
</svg>
